<mxfile host="app.diagrams.net" modified="2024-04-12T13:44:40.499Z" agent="Mozilla/5.0 (Macintosh; Intel Mac OS X 10_15_7) AppleWebKit/537.36 (KHTML, like Gecko) Chrome/121.0.0.0 Safari/537.36 OPR/107.0.0.0" etag="cqsXkOW4yyLoo2L-L45R" version="24.0.7" type="github">
  <diagram name="Page-1" id="UBytbU7bITv9ueWqivet">
    <mxGraphModel dx="3896" dy="2960" grid="0" gridSize="10" guides="1" tooltips="1" connect="1" arrows="1" fold="1" page="0" pageScale="1" pageWidth="850" pageHeight="1100" math="0" shadow="0">
      <root>
        <mxCell id="0" />
        <mxCell id="1" parent="0" />
        <mxCell id="VQ_4bOPfmn1mcgeR550g-5" value="Snacks" style="swimlane;fontStyle=1;align=center;verticalAlign=top;childLayout=stackLayout;horizontal=1;startSize=26;horizontalStack=0;resizeParent=1;resizeParentMax=0;resizeLast=0;collapsible=1;marginBottom=0;whiteSpace=wrap;html=1;" parent="1" vertex="1">
          <mxGeometry x="-236" y="-228" width="175" height="177" as="geometry" />
        </mxCell>
        <mxCell id="VQ_4bOPfmn1mcgeR550g-6" value="- snackID: string&lt;div&gt;- name: string&lt;/div&gt;&lt;div&gt;- basePrice: int&lt;/div&gt;" style="text;strokeColor=none;fillColor=none;align=left;verticalAlign=top;spacingLeft=4;spacingRight=4;overflow=hidden;rotatable=0;points=[[0,0.5],[1,0.5]];portConstraint=eastwest;whiteSpace=wrap;html=1;" parent="VQ_4bOPfmn1mcgeR550g-5" vertex="1">
          <mxGeometry y="26" width="175" height="56" as="geometry" />
        </mxCell>
        <mxCell id="VQ_4bOPfmn1mcgeR550g-7" value="" style="line;strokeWidth=1;fillColor=none;align=left;verticalAlign=middle;spacingTop=-1;spacingLeft=3;spacingRight=3;rotatable=0;labelPosition=right;points=[];portConstraint=eastwest;strokeColor=inherit;" parent="VQ_4bOPfmn1mcgeR550g-5" vertex="1">
          <mxGeometry y="82" width="175" height="8" as="geometry" />
        </mxCell>
        <mxCell id="VQ_4bOPfmn1mcgeR550g-8" value="+ Snack (string, string, int)&lt;div&gt;+ getSnackID ():&amp;nbsp; string&lt;/div&gt;&lt;div&gt;+ getName (): string&lt;/div&gt;&lt;div&gt;+ getBasePrice (): int&lt;br&gt;&lt;div&gt;+ abstract calculatePrice(): int&lt;/div&gt;&lt;/div&gt;" style="text;strokeColor=none;fillColor=none;align=left;verticalAlign=top;spacingLeft=4;spacingRight=4;overflow=hidden;rotatable=0;points=[[0,0.5],[1,0.5]];portConstraint=eastwest;whiteSpace=wrap;html=1;" parent="VQ_4bOPfmn1mcgeR550g-5" vertex="1">
          <mxGeometry y="90" width="175" height="87" as="geometry" />
        </mxCell>
        <mxCell id="VQ_4bOPfmn1mcgeR550g-10" value="Food" style="swimlane;fontStyle=1;align=center;verticalAlign=top;childLayout=stackLayout;horizontal=1;startSize=26;horizontalStack=0;resizeParent=1;resizeParentMax=0;resizeLast=0;collapsible=1;marginBottom=0;whiteSpace=wrap;html=1;" parent="1" vertex="1">
          <mxGeometry x="-368" y="18" width="175" height="112" as="geometry" />
        </mxCell>
        <mxCell id="VQ_4bOPfmn1mcgeR550g-11" value="- isHot: boolean" style="text;strokeColor=none;fillColor=none;align=left;verticalAlign=top;spacingLeft=4;spacingRight=4;overflow=hidden;rotatable=0;points=[[0,0.5],[1,0.5]];portConstraint=eastwest;whiteSpace=wrap;html=1;" parent="VQ_4bOPfmn1mcgeR550g-10" vertex="1">
          <mxGeometry y="26" width="175" height="28" as="geometry" />
        </mxCell>
        <mxCell id="VQ_4bOPfmn1mcgeR550g-12" value="" style="line;strokeWidth=1;fillColor=none;align=left;verticalAlign=middle;spacingTop=-1;spacingLeft=3;spacingRight=3;rotatable=0;labelPosition=right;points=[];portConstraint=eastwest;strokeColor=inherit;" parent="VQ_4bOPfmn1mcgeR550g-10" vertex="1">
          <mxGeometry y="54" width="175" height="8" as="geometry" />
        </mxCell>
        <mxCell id="VQ_4bOPfmn1mcgeR550g-13" value="+ Food (boolean)&lt;div&gt;+ HeatTax(): int&lt;/div&gt;&lt;div&gt;+ calculatePrice(): int&lt;br&gt;&lt;/div&gt;" style="text;strokeColor=none;fillColor=none;align=left;verticalAlign=top;spacingLeft=4;spacingRight=4;overflow=hidden;rotatable=0;points=[[0,0.5],[1,0.5]];portConstraint=eastwest;whiteSpace=wrap;html=1;" parent="VQ_4bOPfmn1mcgeR550g-10" vertex="1">
          <mxGeometry y="62" width="175" height="50" as="geometry" />
        </mxCell>
        <mxCell id="VQ_4bOPfmn1mcgeR550g-18" value="Drinks" style="swimlane;fontStyle=1;align=center;verticalAlign=top;childLayout=stackLayout;horizontal=1;startSize=26;horizontalStack=0;resizeParent=1;resizeParentMax=0;resizeLast=0;collapsible=1;marginBottom=0;whiteSpace=wrap;html=1;" parent="1" vertex="1">
          <mxGeometry x="-102" y="18" width="160" height="113" as="geometry" />
        </mxCell>
        <mxCell id="VQ_4bOPfmn1mcgeR550g-19" value="- sugarContent: int" style="text;strokeColor=none;fillColor=none;align=left;verticalAlign=top;spacingLeft=4;spacingRight=4;overflow=hidden;rotatable=0;points=[[0,0.5],[1,0.5]];portConstraint=eastwest;whiteSpace=wrap;html=1;" parent="VQ_4bOPfmn1mcgeR550g-18" vertex="1">
          <mxGeometry y="26" width="160" height="26" as="geometry" />
        </mxCell>
        <mxCell id="VQ_4bOPfmn1mcgeR550g-20" value="" style="line;strokeWidth=1;fillColor=none;align=left;verticalAlign=middle;spacingTop=-1;spacingLeft=3;spacingRight=3;rotatable=0;labelPosition=right;points=[];portConstraint=eastwest;strokeColor=inherit;" parent="VQ_4bOPfmn1mcgeR550g-18" vertex="1">
          <mxGeometry y="52" width="160" height="8" as="geometry" />
        </mxCell>
        <mxCell id="VQ_4bOPfmn1mcgeR550g-21" value="+ Drinks (int)&lt;div&gt;&lt;span style=&quot;background-color: initial;&quot;&gt;+ SugarTax(): int&lt;/span&gt;&lt;br&gt;&lt;/div&gt;&lt;div&gt;&lt;span style=&quot;background-color: initial;&quot;&gt;+&amp;nbsp;&lt;/span&gt;&lt;span style=&quot;background-color: initial;&quot;&gt;calculatePrice(): int&lt;/span&gt;&lt;/div&gt;" style="text;strokeColor=none;fillColor=none;align=left;verticalAlign=top;spacingLeft=4;spacingRight=4;overflow=hidden;rotatable=0;points=[[0,0.5],[1,0.5]];portConstraint=eastwest;whiteSpace=wrap;html=1;" parent="VQ_4bOPfmn1mcgeR550g-18" vertex="1">
          <mxGeometry y="60" width="160" height="53" as="geometry" />
        </mxCell>
        <mxCell id="VQ_4bOPfmn1mcgeR550g-22" style="edgeStyle=none;curved=1;rounded=0;orthogonalLoop=1;jettySize=auto;html=1;exitX=0.75;exitY=0;exitDx=0;exitDy=0;fontSize=12;startSize=8;endSize=8;" parent="1" source="VQ_4bOPfmn1mcgeR550g-10" target="VQ_4bOPfmn1mcgeR550g-10" edge="1">
          <mxGeometry relative="1" as="geometry" />
        </mxCell>
        <mxCell id="VQ_4bOPfmn1mcgeR550g-23" value="" style="endArrow=classic;html=1;rounded=0;fontSize=12;startSize=8;endSize=8;curved=1;entryX=0.263;entryY=1.104;entryDx=0;entryDy=0;entryPerimeter=0;" parent="1" target="VQ_4bOPfmn1mcgeR550g-8" edge="1">
          <mxGeometry width="50" height="50" relative="1" as="geometry">
            <mxPoint x="-277" y="18" as="sourcePoint" />
            <mxPoint x="-227" y="-32" as="targetPoint" />
          </mxGeometry>
        </mxCell>
        <mxCell id="VQ_4bOPfmn1mcgeR550g-24" value="" style="endArrow=classic;html=1;rounded=0;fontSize=12;startSize=8;endSize=8;curved=1;entryX=0.709;entryY=1.104;entryDx=0;entryDy=0;entryPerimeter=0;" parent="1" target="VQ_4bOPfmn1mcgeR550g-8" edge="1">
          <mxGeometry width="50" height="50" relative="1" as="geometry">
            <mxPoint x="-39" y="18" as="sourcePoint" />
            <mxPoint x="11" y="-32" as="targetPoint" />
          </mxGeometry>
        </mxCell>
        <mxCell id="VQ_4bOPfmn1mcgeR550g-25" value="InvalidSnackException" style="swimlane;fontStyle=0;childLayout=stackLayout;horizontal=1;startSize=26;fillColor=none;horizontalStack=0;resizeParent=1;resizeParentMax=0;resizeLast=0;collapsible=1;marginBottom=0;whiteSpace=wrap;html=1;" parent="1" vertex="1">
          <mxGeometry x="-485" y="-170" width="194" height="77" as="geometry" />
        </mxCell>
        <mxCell id="VQ_4bOPfmn1mcgeR550g-26" value="+ InvalidSnackException ()" style="text;strokeColor=none;fillColor=none;align=left;verticalAlign=top;spacingLeft=4;spacingRight=4;overflow=hidden;rotatable=0;points=[[0,0.5],[1,0.5]];portConstraint=eastwest;whiteSpace=wrap;html=1;" parent="VQ_4bOPfmn1mcgeR550g-25" vertex="1">
          <mxGeometry y="26" width="194" height="26" as="geometry" />
        </mxCell>
        <mxCell id="VQ_4bOPfmn1mcgeR550g-27" value="+ InvalidSnackException (String)" style="text;strokeColor=none;fillColor=none;align=left;verticalAlign=top;spacingLeft=4;spacingRight=4;overflow=hidden;rotatable=0;points=[[0,0.5],[1,0.5]];portConstraint=eastwest;whiteSpace=wrap;html=1;" parent="VQ_4bOPfmn1mcgeR550g-25" vertex="1">
          <mxGeometry y="52" width="194" height="25" as="geometry" />
        </mxCell>
        <mxCell id="VQ_4bOPfmn1mcgeR550g-31" value="Customers" style="swimlane;fontStyle=1;align=center;verticalAlign=top;childLayout=stackLayout;horizontal=1;startSize=26;horizontalStack=0;resizeParent=1;resizeParentMax=0;resizeLast=0;collapsible=1;marginBottom=0;whiteSpace=wrap;html=1;" parent="1" vertex="1">
          <mxGeometry x="209" y="-223" width="210" height="207" as="geometry" />
        </mxCell>
        <mxCell id="VQ_4bOPfmn1mcgeR550g-32" value="- accountID: string&lt;div&gt;- name: string&lt;/div&gt;&lt;div&gt;- balance: int&lt;/div&gt;" style="text;strokeColor=none;fillColor=none;align=left;verticalAlign=top;spacingLeft=4;spacingRight=4;overflow=hidden;rotatable=0;points=[[0,0.5],[1,0.5]];portConstraint=eastwest;whiteSpace=wrap;html=1;" parent="VQ_4bOPfmn1mcgeR550g-31" vertex="1">
          <mxGeometry y="26" width="210" height="56" as="geometry" />
        </mxCell>
        <mxCell id="VQ_4bOPfmn1mcgeR550g-41" value="" style="line;strokeWidth=1;fillColor=none;align=left;verticalAlign=middle;spacingTop=-1;spacingLeft=3;spacingRight=3;rotatable=0;labelPosition=right;points=[];portConstraint=eastwest;strokeColor=inherit;" parent="VQ_4bOPfmn1mcgeR550g-31" vertex="1">
          <mxGeometry y="82" width="210" height="8" as="geometry" />
        </mxCell>
        <mxCell id="VQ_4bOPfmn1mcgeR550g-34" value="+ Customer (string, string)&lt;div&gt;+ Custimer (string, string, int)&lt;/div&gt;&lt;div&gt;+ getAccountID(): string&lt;/div&gt;&lt;div&gt;+ getName: string&lt;/div&gt;&lt;div&gt;+ getBalance(): int&lt;/div&gt;&lt;div&gt;+ addFunds (amount: int): void&lt;/div&gt;&lt;div&gt;+ chargeAccount (snackPrice: int): int&lt;/div&gt;" style="text;strokeColor=none;fillColor=none;align=left;verticalAlign=top;spacingLeft=4;spacingRight=4;overflow=hidden;rotatable=0;points=[[0,0.5],[1,0.5]];portConstraint=eastwest;whiteSpace=wrap;html=1;" parent="VQ_4bOPfmn1mcgeR550g-31" vertex="1">
          <mxGeometry y="90" width="210" height="117" as="geometry" />
        </mxCell>
        <mxCell id="VQ_4bOPfmn1mcgeR550g-35" value="SutdentCustomer" style="swimlane;fontStyle=0;childLayout=stackLayout;horizontal=1;startSize=26;fillColor=none;horizontalStack=0;resizeParent=1;resizeParentMax=0;resizeLast=0;collapsible=1;marginBottom=0;whiteSpace=wrap;html=1;" parent="1" vertex="1">
          <mxGeometry x="88" y="63" width="212" height="98" as="geometry" />
        </mxCell>
        <mxCell id="VQ_4bOPfmn1mcgeR550g-36" value="+ StudentCustomer (string, string)&lt;div&gt;+ StudentCustomer (string, string, int)&lt;br&gt;&lt;/div&gt;&lt;div&gt;+ chargeAccount (snackPrice: int): int&lt;br&gt;&lt;/div&gt;&lt;div&gt;+ getDiscountAmount (): double&lt;/div&gt;" style="text;strokeColor=none;fillColor=none;align=left;verticalAlign=top;spacingLeft=4;spacingRight=4;overflow=hidden;rotatable=0;points=[[0,0.5],[1,0.5]];portConstraint=eastwest;whiteSpace=wrap;html=1;" parent="VQ_4bOPfmn1mcgeR550g-35" vertex="1">
          <mxGeometry y="26" width="212" height="72" as="geometry" />
        </mxCell>
        <mxCell id="VQ_4bOPfmn1mcgeR550g-42" value="&lt;span style=&quot;font-weight: 400;&quot;&gt;StaffCustomer&lt;/span&gt;" style="swimlane;fontStyle=1;align=center;verticalAlign=top;childLayout=stackLayout;horizontal=1;startSize=26;horizontalStack=0;resizeParent=1;resizeParentMax=0;resizeLast=0;collapsible=1;marginBottom=0;whiteSpace=wrap;html=1;" parent="1" vertex="1">
          <mxGeometry x="355" y="63" width="235" height="116" as="geometry" />
        </mxCell>
        <mxCell id="VQ_4bOPfmn1mcgeR550g-43" value="- school: string" style="text;strokeColor=none;fillColor=none;align=left;verticalAlign=top;spacingLeft=4;spacingRight=4;overflow=hidden;rotatable=0;points=[[0,0.5],[1,0.5]];portConstraint=eastwest;whiteSpace=wrap;html=1;" parent="VQ_4bOPfmn1mcgeR550g-42" vertex="1">
          <mxGeometry y="26" width="235" height="26" as="geometry" />
        </mxCell>
        <mxCell id="VQ_4bOPfmn1mcgeR550g-44" value="" style="line;strokeWidth=1;fillColor=none;align=left;verticalAlign=middle;spacingTop=-1;spacingLeft=3;spacingRight=3;rotatable=0;labelPosition=right;points=[];portConstraint=eastwest;strokeColor=inherit;" parent="VQ_4bOPfmn1mcgeR550g-42" vertex="1">
          <mxGeometry y="52" width="235" height="8" as="geometry" />
        </mxCell>
        <mxCell id="VQ_4bOPfmn1mcgeR550g-45" value="+ StaffCustomer (string, string, string)&lt;div&gt;+ StaffCustomer (string, string , string, int&lt;br&gt;&lt;div&gt;&lt;span style=&quot;background-color: initial;&quot;&gt;+ chargeAccount (snackPrice: int): int&lt;/span&gt;&lt;br&gt;&lt;/div&gt;&lt;div&gt;&lt;br&gt;&lt;/div&gt;&lt;/div&gt;" style="text;strokeColor=none;fillColor=none;align=left;verticalAlign=top;spacingLeft=4;spacingRight=4;overflow=hidden;rotatable=0;points=[[0,0.5],[1,0.5]];portConstraint=eastwest;whiteSpace=wrap;html=1;" parent="VQ_4bOPfmn1mcgeR550g-42" vertex="1">
          <mxGeometry y="60" width="235" height="56" as="geometry" />
        </mxCell>
        <mxCell id="VQ_4bOPfmn1mcgeR550g-49" value="" style="endArrow=classic;html=1;rounded=0;fontSize=12;startSize=8;endSize=8;curved=1;exitX=0.5;exitY=0;exitDx=0;exitDy=0;entryX=0.361;entryY=1.026;entryDx=0;entryDy=0;entryPerimeter=0;" parent="1" source="VQ_4bOPfmn1mcgeR550g-35" target="VQ_4bOPfmn1mcgeR550g-34" edge="1">
          <mxGeometry width="50" height="50" relative="1" as="geometry">
            <mxPoint x="187" y="59" as="sourcePoint" />
            <mxPoint x="301" as="targetPoint" />
          </mxGeometry>
        </mxCell>
        <mxCell id="VQ_4bOPfmn1mcgeR550g-50" value="" style="endArrow=classic;html=1;rounded=0;fontSize=12;startSize=8;endSize=8;curved=1;exitX=0.5;exitY=0;exitDx=0;exitDy=0;entryX=0.582;entryY=1.026;entryDx=0;entryDy=0;entryPerimeter=0;" parent="1" source="VQ_4bOPfmn1mcgeR550g-42" target="VQ_4bOPfmn1mcgeR550g-34" edge="1">
          <mxGeometry width="50" height="50" relative="1" as="geometry">
            <mxPoint x="466" y="60" as="sourcePoint" />
            <mxPoint x="559" y="-7" as="targetPoint" />
          </mxGeometry>
        </mxCell>
        <mxCell id="VQ_4bOPfmn1mcgeR550g-51" value="" style="endArrow=none;html=1;rounded=0;fontSize=12;startSize=8;endSize=8;curved=1;exitX=1.01;exitY=0.163;exitDx=0;exitDy=0;exitPerimeter=0;" parent="1" source="VQ_4bOPfmn1mcgeR550g-8" edge="1">
          <mxGeometry width="50" height="50" relative="1" as="geometry">
            <mxPoint x="-38" y="-127" as="sourcePoint" />
            <mxPoint x="207" y="-121" as="targetPoint" />
          </mxGeometry>
        </mxCell>
        <mxCell id="VQ_4bOPfmn1mcgeR550g-52" value="" style="endArrow=none;html=1;rounded=0;fontSize=12;startSize=8;endSize=8;curved=1;entryX=-0.006;entryY=0.124;entryDx=0;entryDy=0;entryPerimeter=0;exitX=1.004;exitY=0.788;exitDx=0;exitDy=0;exitPerimeter=0;" parent="1" source="VQ_4bOPfmn1mcgeR550g-26" target="VQ_4bOPfmn1mcgeR550g-8" edge="1">
          <mxGeometry width="50" height="50" relative="1" as="geometry">
            <mxPoint x="-293" y="-114" as="sourcePoint" />
            <mxPoint x="-243" y="-164" as="targetPoint" />
          </mxGeometry>
        </mxCell>
        <mxCell id="VQ_4bOPfmn1mcgeR550g-53" value="InvalidCustomerException" style="swimlane;fontStyle=0;childLayout=stackLayout;horizontal=1;startSize=26;fillColor=none;horizontalStack=0;resizeParent=1;resizeParentMax=0;resizeLast=0;collapsible=1;marginBottom=0;whiteSpace=wrap;html=1;" parent="1" vertex="1">
          <mxGeometry x="461" y="-220" width="205" height="77" as="geometry" />
        </mxCell>
        <mxCell id="VQ_4bOPfmn1mcgeR550g-54" value="&lt;span style=&quot;text-align: center;&quot;&gt;+ InvalidCustomerException ()&lt;/span&gt;" style="text;strokeColor=none;fillColor=none;align=left;verticalAlign=top;spacingLeft=4;spacingRight=4;overflow=hidden;rotatable=0;points=[[0,0.5],[1,0.5]];portConstraint=eastwest;whiteSpace=wrap;html=1;" parent="VQ_4bOPfmn1mcgeR550g-53" vertex="1">
          <mxGeometry y="26" width="205" height="26" as="geometry" />
        </mxCell>
        <mxCell id="VQ_4bOPfmn1mcgeR550g-55" value="&lt;span style=&quot;text-align: center;&quot;&gt;+ InvalidCustomerException (string)&lt;/span&gt;" style="text;strokeColor=none;fillColor=none;align=left;verticalAlign=top;spacingLeft=4;spacingRight=4;overflow=hidden;rotatable=0;points=[[0,0.5],[1,0.5]];portConstraint=eastwest;whiteSpace=wrap;html=1;" parent="VQ_4bOPfmn1mcgeR550g-53" vertex="1">
          <mxGeometry y="52" width="205" height="25" as="geometry" />
        </mxCell>
        <mxCell id="VQ_4bOPfmn1mcgeR550g-56" value="InsufficientBalanceException" style="swimlane;fontStyle=0;childLayout=stackLayout;horizontal=1;startSize=26;fillColor=none;horizontalStack=0;resizeParent=1;resizeParentMax=0;resizeLast=0;collapsible=1;marginBottom=0;whiteSpace=wrap;html=1;" parent="1" vertex="1">
          <mxGeometry x="455" y="-114" width="217" height="77" as="geometry" />
        </mxCell>
        <mxCell id="VQ_4bOPfmn1mcgeR550g-57" value="&lt;span style=&quot;text-align: center;&quot;&gt;+&amp;nbsp;&lt;/span&gt;&lt;span style=&quot;text-align: center;&quot;&gt;InsufficientBalanceException ()&lt;/span&gt;" style="text;strokeColor=none;fillColor=none;align=left;verticalAlign=top;spacingLeft=4;spacingRight=4;overflow=hidden;rotatable=0;points=[[0,0.5],[1,0.5]];portConstraint=eastwest;whiteSpace=wrap;html=1;" parent="VQ_4bOPfmn1mcgeR550g-56" vertex="1">
          <mxGeometry y="26" width="217" height="26" as="geometry" />
        </mxCell>
        <mxCell id="VQ_4bOPfmn1mcgeR550g-58" value="&lt;span style=&quot;text-align: center;&quot;&gt;+ InsufficientBalanceException (string)&lt;/span&gt;" style="text;strokeColor=none;fillColor=none;align=left;verticalAlign=top;spacingLeft=4;spacingRight=4;overflow=hidden;rotatable=0;points=[[0,0.5],[1,0.5]];portConstraint=eastwest;whiteSpace=wrap;html=1;" parent="VQ_4bOPfmn1mcgeR550g-56" vertex="1">
          <mxGeometry y="52" width="217" height="25" as="geometry" />
        </mxCell>
        <mxCell id="VQ_4bOPfmn1mcgeR550g-60" value="" style="endArrow=none;html=1;rounded=0;fontSize=12;startSize=8;endSize=8;curved=1;entryX=-0.001;entryY=0.891;entryDx=0;entryDy=0;exitX=1;exitY=0.5;exitDx=0;exitDy=0;entryPerimeter=0;" parent="1" source="VQ_4bOPfmn1mcgeR550g-32" target="VQ_4bOPfmn1mcgeR550g-54" edge="1">
          <mxGeometry width="50" height="50" relative="1" as="geometry">
            <mxPoint x="422" y="-114" as="sourcePoint" />
            <mxPoint x="461" y="-182" as="targetPoint" />
          </mxGeometry>
        </mxCell>
        <mxCell id="VQ_4bOPfmn1mcgeR550g-61" value="" style="endArrow=none;html=1;rounded=0;fontSize=12;startSize=8;endSize=8;curved=1;exitX=1;exitY=0.5;exitDx=0;exitDy=0;entryX=0.001;entryY=0.774;entryDx=0;entryDy=0;entryPerimeter=0;" parent="1" target="VQ_4bOPfmn1mcgeR550g-57" edge="1">
          <mxGeometry width="50" height="50" relative="1" as="geometry">
            <mxPoint x="419" y="-68" as="sourcePoint" />
            <mxPoint x="453" y="-68" as="targetPoint" />
          </mxGeometry>
        </mxCell>
        <mxCell id="VQ_4bOPfmn1mcgeR550g-62" value="SnackShop" style="swimlane;fontStyle=1;align=center;verticalAlign=top;childLayout=stackLayout;horizontal=1;startSize=26;horizontalStack=0;resizeParent=1;resizeParentMax=0;resizeLast=0;collapsible=1;marginBottom=0;whiteSpace=wrap;html=1;" parent="1" vertex="1">
          <mxGeometry x="-2" y="-698" width="160" height="226" as="geometry" />
        </mxCell>
        <mxCell id="VQ_4bOPfmn1mcgeR550g-63" value="- shopName: string&lt;div&gt;- sales: int&lt;/div&gt;&lt;div&gt;- snacks: &amp;lt;string&amp;gt;&lt;/div&gt;&lt;div&gt;- customers: &amp;lt;string&amp;gt;&lt;/div&gt;" style="text;strokeColor=none;fillColor=none;align=left;verticalAlign=top;spacingLeft=4;spacingRight=4;overflow=hidden;rotatable=0;points=[[0,0.5],[1,0.5]];portConstraint=eastwest;whiteSpace=wrap;html=1;" parent="VQ_4bOPfmn1mcgeR550g-62" vertex="1">
          <mxGeometry y="26" width="160" height="75" as="geometry" />
        </mxCell>
        <mxCell id="VQ_4bOPfmn1mcgeR550g-64" value="" style="line;strokeWidth=1;fillColor=none;align=left;verticalAlign=middle;spacingTop=-1;spacingLeft=3;spacingRight=3;rotatable=0;labelPosition=right;points=[];portConstraint=eastwest;strokeColor=inherit;" parent="VQ_4bOPfmn1mcgeR550g-62" vertex="1">
          <mxGeometry y="101" width="160" height="26" as="geometry" />
        </mxCell>
        <mxCell id="VQ_4bOPfmn1mcgeR550g-65" value="+ method(type): type" style="text;strokeColor=none;fillColor=none;align=left;verticalAlign=top;spacingLeft=4;spacingRight=4;overflow=hidden;rotatable=0;points=[[0,0.5],[1,0.5]];portConstraint=eastwest;whiteSpace=wrap;html=1;" parent="VQ_4bOPfmn1mcgeR550g-62" vertex="1">
          <mxGeometry y="127" width="160" height="99" as="geometry" />
        </mxCell>
      </root>
    </mxGraphModel>
  </diagram>
</mxfile>
